<svg width="55" height="55" viewBox="0 0 55 55" fill="none" xmlns="http://www.w3.org/2000/svg">
<path d="M43.8461 0.426488C43.7031 0.426488 43.5482 0.438402 43.4053 0.44555C43.0121 0.476527 42.607 0.545628 42.19 0.656429C40.5935 1.08534 38.9137 2.13377 37.5078 3.98045C37.3648 4.5702 37.3768 5.09204 37.5197 5.47686C37.758 6.07614 38.318 6.63848 40.0098 6.90893L39.6762 9.02129C37.8771 8.74012 36.5547 7.97286 35.8518 6.90059C35.1727 8.52805 34.6603 10.4986 34.4221 12.8695L34.3625 13.3461L33.9812 13.632C19.7201 23.9615 8.29453 35.7922 0.414566 46.9557C11.7853 44.4775 22.5437 41.8207 30.6334 37.6031C39.1281 33.1592 44.6682 27.1902 45.4307 17.7066C45.4307 16.7416 45.1805 16.0982 44.8469 15.6336C44.4418 15.0975 43.8699 14.7758 43.2385 14.6447C42.607 14.5018 41.9279 14.5852 41.4275 14.7996C40.9391 15.0141 40.6769 15.3 40.5816 15.6574L38.5086 15.1332C38.7826 14.0371 39.6285 13.2389 40.5697 12.8338C42.4521 12.0594 44.6682 12.4525 46.0978 13.8227C46.4434 12.6551 46.8842 11.4518 47.2893 10.2723C47.3965 9.9625 47.5037 9.65274 47.599 9.35489C49.3623 7.62973 51.209 6.60036 54.5568 9.3668C54.9262 6.12737 51.6021 2.95703 48.4926 3.62184C48.1947 2.48762 47.5037 1.66317 46.5625 1.11393C45.8119 0.667152 44.8707 0.418148 43.8461 0.426488ZM45.4426 2.48047C46.0383 2.48047 46.5148 2.96061 46.5148 3.55274C46.5148 4.14487 46.0383 4.625 45.4426 4.625C44.8469 4.625 44.3703 4.14487 44.3703 3.55274C44.3703 2.96061 44.8469 2.48047 45.4426 2.48047ZM41.6896 31.9082C40.6055 33.1354 39.4021 34.2672 38.0797 35.3275C37.8652 38.0678 37.6627 40.9152 36.5428 43.6912C37.1146 43.7389 37.6746 43.7627 38.1631 43.727C38.723 43.6793 39.1639 43.5602 39.426 43.4053C39.7 43.2385 39.843 43.0955 39.9502 42.7381C40.9748 39.1996 41.3918 35.5777 41.6896 31.9082ZM35.7445 37.0551C34.4459 37.9248 33.0758 38.735 31.6223 39.4975C30.4428 40.117 29.2156 40.6889 27.9527 41.2488L28.8105 44.5252C28.9416 45.0256 29.1084 45.1447 29.5135 45.2758C29.9066 45.4068 30.5619 45.4068 31.2529 45.2639C31.9559 45.1209 32.6826 44.835 33.2307 44.5371C33.7787 44.2393 34.1361 43.8104 34.0766 43.9295C35.1607 41.8207 35.5062 39.4975 35.7445 37.0551ZM18.6955 44.6086C14.4184 45.9072 9.8791 47.0391 5.21117 48.0994C4.71435 48.8023 4.32476 49.5648 4.19966 50.0772C4.13771 50.3393 4.14605 50.5061 4.16035 50.5656C5.70084 51.4115 7.90255 51.7094 9.43828 51.6617C11.416 51.5902 13.4057 51.1137 14.609 50.5418C15.7408 50.0176 17.2301 47.8254 18.207 45.7166C18.3857 45.3354 18.5406 44.966 18.6955 44.6086ZM39.14 45.7524C38.866 45.8 38.6039 45.8357 38.3299 45.8596C37.8891 45.8953 37.4363 45.8953 36.9836 45.8715L37.5197 52.4242H31.9678L32.3371 47.2059C32.1227 47.2654 31.9082 47.3131 31.6937 47.3607C31.1934 47.468 30.681 47.5275 30.1568 47.5275L29.8232 52.4242H25.9035L24.2355 54.5688H48.707L46.8008 52.4242H39.6762L39.14 45.7524Z" fill="white"/>
</svg>
